<?xml version="1.0" encoding="utf-8"?>
<!-- Generator: Adobe Illustrator 25.0.0, SVG Export Plug-In . SVG Version: 6.00 Build 0)  -->
<svg version="1.1" id="Layer_1" xmlns="http://www.w3.org/2000/svg" xmlns:xlink="http://www.w3.org/1999/xlink" x="0px" y="0px"
	 viewBox="0 0 507.2 344" style="enable-background:new 0 0 507.2 344;" xml:space="preserve">
<style type="text/css">
	.st0{fill:url(#SVGID_1_);}
	.st1{opacity:0.5;fill:url(#SVGID_2_);}
	.st2{opacity:0.8;}
	.st3{fill:url(#SVGID_3_);}
	.st4{opacity:0.5;fill:url(#SVGID_4_);}
	.st5{fill:url(#SVGID_5_);}
	.st6{opacity:0.5;fill:url(#SVGID_6_);}
	.st7{fill:url(#SVGID_7_);}
	.st8{opacity:0.5;fill:url(#SVGID_8_);}
	.st9{fill:url(#SVGID_9_);}
	.st10{opacity:0.5;fill:url(#SVGID_10_);}
	.st11{fill:url(#SVGID_11_);}
	.st12{opacity:0.5;fill:url(#SVGID_12_);}
	.st13{fill:url(#SVGID_13_);}
	.st14{opacity:0.5;fill:url(#SVGID_14_);}
	.st15{fill:#4D4E4E;}
</style>
<g>
	<g>
		<g>
			
				<linearGradient id="SVGID_1_" gradientUnits="userSpaceOnUse" x1="131.0418" y1="-120.4884" x2="242.7813" y2="205.0139" gradientTransform="matrix(0.7071 0.7071 -0.7071 0.7071 182.3345 -10.0723)">
				<stop  offset="0" style="stop-color:#FFD874"/>
				<stop  offset="0.3075" style="stop-color:#F38074"/>
				<stop  offset="0.7785" style="stop-color:#832573"/>
				<stop  offset="0.9695" style="stop-color:#862573"/>
				<stop  offset="1" style="stop-color:#872573"/>
			</linearGradient>
			<path class="st0" d="M252.2,91.7c-32.2,32.2-43.9,77-35.4,118.5c41.5,8.6,86.3-3.2,118.5-35.3c32.2-32.2,43.9-77,35.4-118.5
				C329.2,47.8,284.4,59.5,252.2,91.7z"/>
			
				<linearGradient id="SVGID_2_" gradientUnits="userSpaceOnUse" x1="71.5372" y1="19.91" x2="203.7469" y2="23.1605" gradientTransform="matrix(0.7071 0.7071 -0.7071 0.7071 182.3345 -10.0723)">
				<stop  offset="0" style="stop-color:#FFD874"/>
				<stop  offset="0.3075" style="stop-color:#F38074"/>
				<stop  offset="0.7785" style="stop-color:#832573"/>
				<stop  offset="0.9695" style="stop-color:#862573"/>
				<stop  offset="1" style="stop-color:#872573"/>
			</linearGradient>
			<path class="st1" d="M369.3,56.1c-41.1-8-85.3,3.7-117.1,35.6c-31.8,31.8-43.6,76-35.5,117.1L369.3,56.1z"/>
		</g>
		<g class="st2">
			
				<linearGradient id="SVGID_3_" gradientUnits="userSpaceOnUse" x1="165.97" y1="-72.4301" x2="277.7103" y2="253.0742" gradientTransform="matrix(0.9659 0.2588 -0.2588 0.9659 55.5256 -18.7693)">
				<stop  offset="0" style="stop-color:#AFE0EA"/>
				<stop  offset="0.3075" style="stop-color:#48BAEB"/>
				<stop  offset="0.7785" style="stop-color:#4053A3"/>
				<stop  offset="0.9695" style="stop-color:#4053A3"/>
				<stop  offset="1" style="stop-color:#4053A3"/>
			</linearGradient>
			<path class="st3" d="M188.2,89.9c-11.8,44,0.5,88.6,28.6,120.3c40.2-13.3,73.2-45.9,84.9-89.9c11.8-43.9-0.5-88.6-28.6-120.3
				C232.9,13.3,200,45.9,188.2,89.9z"/>
			
				<linearGradient id="SVGID_4_" gradientUnits="userSpaceOnUse" x1="106.4905" y1="67.9615" x2="238.6354" y2="71.2105" gradientTransform="matrix(0.9659 0.2588 -0.2588 0.9659 55.5256 -18.7693)">
				<stop  offset="0" style="stop-color:#AFE0EA"/>
				<stop  offset="0.3075" style="stop-color:#48BAEB"/>
				<stop  offset="0.7785" style="stop-color:#4053A3"/>
				<stop  offset="0.9695" style="stop-color:#4053A3"/>
				<stop  offset="1" style="stop-color:#4053A3"/>
			</linearGradient>
			<path class="st4" d="M271.8,0.5c-39.6,13.6-72,45.9-83.6,89.4c-11.7,43.5,0.2,87.6,27.8,119.2L271.8,0.5z"/>
		</g>
		<g>
			
				<linearGradient id="SVGID_5_" gradientUnits="userSpaceOnUse" x1="172.4473" y1="-13.7986" x2="284.1879" y2="311.7067" gradientTransform="matrix(0.9659 -0.2588 0.2588 0.9659 -58.7738 37.5969)">
				<stop  offset="0" style="stop-color:#72CCDC"/>
				<stop  offset="0.3075" style="stop-color:#48BAEB"/>
				<stop  offset="0.7785" style="stop-color:#393C97"/>
				<stop  offset="0.9563" style="stop-color:#3A3F98"/>
				<stop  offset="1" style="stop-color:#3B4199"/>
			</linearGradient>
			<path class="st5" d="M131.9,120.3c11.8,44,44.7,76.5,84.9,89.9c28.2-31.6,40.4-76.3,28.6-120.3c-11.8-44-44.7-76.5-84.9-89.9
				C132.4,31.7,120.1,76.4,131.9,120.3z"/>
			
				<linearGradient id="SVGID_6_" gradientUnits="userSpaceOnUse" x1="112.9753" y1="126.5989" x2="245.0895" y2="129.8471" gradientTransform="matrix(0.9659 -0.2588 0.2588 0.9659 -58.7738 37.5969)">
				<stop  offset="0" style="stop-color:#72CCDC"/>
				<stop  offset="0.3075" style="stop-color:#48BAEB"/>
				<stop  offset="0.7785" style="stop-color:#393C97"/>
				<stop  offset="0.9563" style="stop-color:#3A3F98"/>
				<stop  offset="1" style="stop-color:#3B4199"/>
			</linearGradient>
			<path class="st6" d="M159.6,1.1c-27.5,31.6-39.4,75.7-27.8,119.2c11.6,43.5,44,75.7,83.6,89.4L159.6,1.1z"/>
		</g>
		<g class="st2">
			
				<linearGradient id="SVGID_7_" gradientUnits="userSpaceOnUse" x1="148.2101" y1="40.1885" x2="259.9636" y2="365.7314" gradientTransform="matrix(0.7071 -0.7071 0.7071 0.7071 -129.2164 143.1997)">
				<stop  offset="0" style="stop-color:#E2B0D1"/>
				<stop  offset="0.3075" style="stop-color:#BB58A1"/>
				<stop  offset="0.7785" style="stop-color:#B8529E"/>
				<stop  offset="0.9695" style="stop-color:#B8529E"/>
				<stop  offset="1" style="stop-color:#B8529E"/>
			</linearGradient>
			<path class="st7" d="M98.3,174.9c32.2,32.1,77,43.9,118.5,35.3c8.6-41.5-3.2-86.3-35.3-118.5c-32.2-32.2-77.1-43.9-118.6-35.4
				C54.4,97.8,66.1,142.6,98.3,174.9z"/>
			
				<linearGradient id="SVGID_8_" gradientUnits="userSpaceOnUse" x1="88.7145" y1="180.6198" x2="220.8718" y2="183.869" gradientTransform="matrix(0.7071 -0.7071 0.7071 0.7071 -129.2164 143.1997)">
				<stop  offset="0" style="stop-color:#E2B0D1"/>
				<stop  offset="0.3075" style="stop-color:#BB58A1"/>
				<stop  offset="0.7785" style="stop-color:#B8529E"/>
				<stop  offset="0.9695" style="stop-color:#B8529E"/>
				<stop  offset="1" style="stop-color:#B8529E"/>
			</linearGradient>
			<path class="st8" d="M62.8,57.7c-8,41.1,3.7,85.3,35.6,117.1c31.8,31.8,76,43.6,117.1,35.5L62.8,57.7z"/>
		</g>
	</g>
	<g>
		<g>
			
				<linearGradient id="SVGID_9_" gradientUnits="userSpaceOnUse" x1="151.8147" y1="-153.6193" x2="263.5461" y2="171.8594" gradientTransform="matrix(0.4244 -0.9055 0.9055 0.4244 42.6329 350.4452)">
				<stop  offset="0" style="stop-color:#FFD874"/>
				<stop  offset="0.3075" style="stop-color:#F38074"/>
				<stop  offset="0.7785" style="stop-color:#832573"/>
				<stop  offset="0.9695" style="stop-color:#862573"/>
				<stop  offset="1" style="stop-color:#872573"/>
			</linearGradient>
			<path class="st9" d="M93.3,217.3c41.3,19.3,87.4,15.1,123.5-7.1c-6-41.9-32.4-80.1-73.5-99.4c-41.3-19.3-87.4-15.1-123.5,7
				C25.9,159.8,52.1,198,93.3,217.3z"/>
			
				<linearGradient id="SVGID_10_" gradientUnits="userSpaceOnUse" x1="92.256" y1="-13.2238" x2="224.5271" y2="-9.9717" gradientTransform="matrix(0.4244 -0.9055 0.9055 0.4244 42.6329 350.4452)">
				<stop  offset="0" style="stop-color:#FFD874"/>
				<stop  offset="0.3075" style="stop-color:#F38074"/>
				<stop  offset="0.7785" style="stop-color:#832573"/>
				<stop  offset="0.9695" style="stop-color:#862573"/>
				<stop  offset="1" style="stop-color:#872573"/>
			</linearGradient>
			<path class="st10" d="M20.1,119.3c6.5,41.3,32.5,78.9,73.2,98c40.8,19.1,86.3,15.1,122.3-6.4L20.1,119.3z"/>
		</g>
		<g class="st2">
			
				<linearGradient id="SVGID_11_" gradientUnits="userSpaceOnUse" x1="200.2389" y1="-91.1399" x2="311.9847" y2="234.3807" gradientTransform="matrix(-8.520000e-02 -0.9964 0.9964 -8.520000e-02 77.9375 472.3474)">
				<stop  offset="0" style="stop-color:#AFE0EA"/>
				<stop  offset="0.3075" style="stop-color:#48BAEB"/>
				<stop  offset="0.7785" style="stop-color:#4053A3"/>
				<stop  offset="0.9695" style="stop-color:#4053A3"/>
				<stop  offset="1" style="stop-color:#4053A3"/>
			</linearGradient>
			<path class="st11" d="M113.4,278c45.4-3.9,83.2-30.6,103.4-67.8c-26.2-33.3-68-53.2-113.4-49.3C58.1,164.8,20.2,191.5,0,228.8
				C26.2,262,68.1,281.9,113.4,278z"/>
			
				<linearGradient id="SVGID_12_" gradientUnits="userSpaceOnUse" x1="140.7825" y1="49.2859" x2="272.9007" y2="52.5342" gradientTransform="matrix(-8.520000e-02 -0.9964 0.9964 -8.520000e-02 77.9375 472.3474)">
				<stop  offset="0" style="stop-color:#AFE0EA"/>
				<stop  offset="0.3075" style="stop-color:#48BAEB"/>
				<stop  offset="0.7785" style="stop-color:#4053A3"/>
				<stop  offset="0.9695" style="stop-color:#4053A3"/>
				<stop  offset="1" style="stop-color:#4053A3"/>
			</linearGradient>
			<path class="st12" d="M1,229.8c26.3,32.6,67.6,52,112.4,48.2c44.9-3.8,82.3-30.1,102.7-66.6L1,229.8z"/>
		</g>
		<g>
			
				<linearGradient id="SVGID_13_" gradientUnits="userSpaceOnUse" x1="210.7146" y1="-12.4732" x2="322.4539" y2="313.0284" gradientTransform="matrix(-0.572 -0.8203 0.8203 -0.572 169.1018 560.2537)">
				<stop  offset="0" style="stop-color:#72CCDC"/>
				<stop  offset="0.3075" style="stop-color:#48BAEB"/>
				<stop  offset="0.7785" style="stop-color:#393C97"/>
				<stop  offset="0.9563" style="stop-color:#3A3F98"/>
				<stop  offset="1" style="stop-color:#3B4199"/>
			</linearGradient>
			<path class="st13" d="M161.2,320.7c37.4-26.1,56.8-68.1,55.6-110.5c-39.3-15.7-85.5-12-122.9,14c-37.3,26-56.8,68.1-55.6,110.5
				C77.7,350.4,123.9,346.7,161.2,320.7z"/>
			
				<linearGradient id="SVGID_14_" gradientUnits="userSpaceOnUse" x1="151.2404" y1="127.9103" x2="283.3497" y2="131.1583" gradientTransform="matrix(-0.572 -0.8203 0.8203 -0.572 169.1018 560.2537)">
				<stop  offset="0" style="stop-color:#72CCDC"/>
				<stop  offset="0.3075" style="stop-color:#48BAEB"/>
				<stop  offset="0.7785" style="stop-color:#393C97"/>
				<stop  offset="0.9563" style="stop-color:#3A3F98"/>
				<stop  offset="1" style="stop-color:#3B4199"/>
			</linearGradient>
			<path class="st14" d="M39.7,335.1c39.1,15.1,84.7,11.2,121.5-14.5c37-25.8,56.3-67.2,55.6-109L39.7,335.1z"/>
		</g>
	</g>
	<g>
		<path class="st15" d="M230.8,237.4h17.8v6.1h-10.6v5.2h9.1v6.1h-9.1v10h-7.2V237.4z"/>
		<path class="st15" d="M266.7,237.4h8.7l8.3,27.3h-7.7l-3.1-13.3c-0.7-2.6-1.3-5.9-2-8.7h-0.2c-0.6,2.8-1.3,6.1-1.9,8.7l-3.1,13.3
			h-7.4L266.7,237.4z M264.3,253.4h13.4v5.6h-13.4V253.4z"/>
		<path class="st15" d="M294.3,237.4h7.4l6.1,12.2l2.6,6.1h0.2c-0.3-2.9-0.9-7.1-0.9-10.4v-7.9h6.9v27.3h-7.4l-6.1-12.2l-2.6-6.1
			h-0.2c0.3,3.1,0.9,7.1,0.9,10.4v7.9h-6.9V237.4z"/>
		<path class="st15" d="M331,237.4h7.2v27.3H331V237.4z"/>
		<path class="st15" d="M351,261.4l4.1-5c1.9,1.6,4.4,2.6,6.4,2.6c2.2,0,3.1-0.7,3.1-1.9c0-1.3-1.4-1.7-3.7-2.6l-3.4-1.4
			c-2.9-1.2-5.5-3.7-5.5-7.6c0-4.7,4.2-8.5,10.2-8.5c3.1,0,6.6,1.2,9.1,3.7l-3.6,4.5c-1.8-1.3-3.4-2-5.5-2c-1.8,0-2.9,0.6-2.9,1.8
			c0,1.3,1.6,1.8,4,2.7l3.3,1.3c3.4,1.3,5.3,3.7,5.3,7.5c0,4.6-3.9,8.7-10.7,8.7C357.9,265.3,353.9,264,351,261.4z"/>
		<path class="st15" d="M390,243.5h-7.2v-6.1h21.7v6.1h-7.2v21.3H390V243.5z"/>
		<path class="st15" d="M421.8,237.4h8.7l8.3,27.3h-7.7l-3.1-13.3c-0.7-2.6-1.3-5.9-2-8.7h-0.2c-0.6,2.8-1.3,6.1-1.9,8.7l-3.1,13.3
			h-7.4L421.8,237.4z M419.4,253.4h13.4v5.6h-13.4V253.4z"/>
		<path class="st15" d="M454.3,237.4h8.7l8.3,27.3h-7.7l-3.1-13.3c-0.7-2.6-1.3-5.9-2-8.7h-0.2c-0.6,2.8-1.3,6.1-1.9,8.7l-3.1,13.3
			H446L454.3,237.4z M452,253.4h13.4v5.6H452V253.4z"/>
		<path class="st15" d="M482,237.4h7.4l6.1,12.2l2.6,6.1h0.2c-0.3-2.9-0.9-7.1-0.9-10.4v-7.9h6.9v27.3h-7.4l-6.1-12.2l-2.6-6.1H488
			c0.3,3.1,0.9,7.1,0.9,10.4v7.9H482V237.4z"/>
	</g>
	<g>
		<path class="st15" d="M230.2,278.4h1l-0.1,8.2c-0.1,1.5,0,3-0.1,4.5h0.1c0.8-1.5,1.5-3,2.3-4.5l4.2-8.2h1l0.3,8.2
			c0.1,1.5,0.1,3,0.1,4.5h0.1c0.7-1.5,1.4-3,2.1-4.5l3.7-8.2h1l-6.4,13.9h-1.3l-0.3-9.5c0-1.1,0-2.1,0-3.3h-0.1
			c-0.5,1.1-1,2.1-1.5,3.3l-4.8,9.5h-1.2L230.2,278.4z"/>
		<path class="st15" d="M248.9,277.1h0.9l-1.2,5.6l-0.3,1.1h0.1c1.4-1.1,2.7-1.9,4-1.9c1.9,0,2.6,1,2.6,2.5c0,0.5,0,0.8-0.2,1.4
			l-1.4,6.5h-0.9l1.4-6.4c0.1-0.6,0.2-0.9,0.2-1.3c0-1.2-0.6-1.9-2-1.9c-1,0-2.3,0.6-3.9,2.1l-1.6,7.4h-0.9L248.9,277.1z"/>
		<path class="st15" d="M263,281.9c2.4,0,3.3,1.5,3.3,3.6c0,0.7-0.2,1.4-0.3,1.8h-7.7c-0.6,3.2,1.1,4.5,3.3,4.5c1,0,2-0.5,2.8-1
			l0.4,0.6c-0.9,0.6-2.1,1.1-3.3,1.1c-2.6,0-4.2-1.5-4.2-4.2C257.2,284.5,260.1,281.9,263,281.9z M265.3,286.6
			c0.1-0.4,0.1-0.8,0.1-1.2c0-1.4-0.7-2.7-2.5-2.7c-2,0-3.9,1.6-4.5,3.9H265.3z"/>
		<path class="st15" d="M270.2,282.2h0.8l-0.3,1.9h0.1c0.9-1.2,2-2.2,3.5-2.2c0.3,0,0.6,0,1,0.2l-0.4,0.8c-0.2-0.1-0.5-0.2-0.9-0.2
			c-1.2,0-2.6,1-3.6,2.8l-1.4,6.7H268L270.2,282.2z"/>
		<path class="st15" d="M280.9,281.9c2.4,0,3.3,1.5,3.3,3.6c0,0.7-0.2,1.4-0.3,1.8h-7.7c-0.6,3.2,1.1,4.5,3.3,4.5c1,0,2-0.5,2.8-1
			l0.4,0.6c-0.9,0.6-2.1,1.1-3.3,1.1c-2.6,0-4.2-1.5-4.2-4.2C275.1,284.5,278,281.9,280.9,281.9z M283.2,286.6
			c0.1-0.4,0.1-0.8,0.1-1.2c0-1.4-0.7-2.7-2.5-2.7c-2,0-3.9,1.6-4.5,3.9H283.2z"/>
		<path class="st15" d="M293.3,278.4h4c2.8,0,4.5,1,4.5,3.2c0,3.1-2.5,4.6-6.4,4.6h-2.8l-1.3,6h-1L293.3,278.4z M295.2,285.5
			c3.6,0,5.5-1.3,5.5-3.8c0-1.8-1.4-2.5-3.9-2.5h-2.7l-1.4,6.3H295.2z"/>
		<path class="st15" d="M302.1,288.9c0-3.9,2.9-7,6-7c1.3,0,2.3,0.7,2.8,1.6h0.1l0.4-1.4h0.8l-2.2,10.1h-0.8l0.2-1.6h-0.1
			c-1.1,1.1-2.6,1.9-4.1,1.9C303.4,292.5,302.1,291.2,302.1,288.9z M309.7,289.6l1.2-5.1c-0.8-1.3-1.7-1.8-2.7-1.8c-2.6,0-5,3-5,6
			c0,2,1,3,2.5,3C307,291.7,308.4,291,309.7,289.6z"/>
		<path class="st15" d="M313.2,290.6l0.7-0.5c0.6,0.9,1.7,1.6,3.1,1.6c1.5,0,2.8-1,2.8-2.1c0-0.8-0.4-1.3-2.1-2.2
			c-2-1-2.7-1.7-2.7-2.7c0-1.7,1.6-2.9,3.5-2.9c1.2,0,2.3,0.5,3,1.2l-0.6,0.6c-0.6-0.6-1.4-1-2.5-1c-1.4,0-2.5,0.9-2.5,2
			c0,1,1,1.5,2,2c2.4,1.2,2.8,2,2.8,2.9c0,1.8-1.7,3-3.9,3C315.3,292.5,313.8,291.6,313.2,290.6z"/>
		<path class="st15" d="M322.1,290.6l0.7-0.5c0.6,0.9,1.7,1.6,3.1,1.6c1.5,0,2.8-1,2.8-2.1c0-0.8-0.4-1.3-2.1-2.2
			c-2-1-2.7-1.7-2.7-2.7c0-1.7,1.6-2.9,3.5-2.9c1.2,0,2.3,0.5,3,1.2l-0.6,0.6c-0.6-0.6-1.4-1-2.5-1c-1.4,0-2.5,0.9-2.5,2
			c0,1,1,1.5,2,2c2.4,1.2,2.8,2,2.8,2.9c0,1.8-1.7,3-3.9,3C324.2,292.5,322.8,291.6,322.1,290.6z"/>
		<path class="st15" d="M334.3,282.2h0.9l-2.2,10.1H332L334.3,282.2z M334.6,279c0-0.6,0.5-0.9,1-0.9c0.4,0,0.8,0.3,0.8,0.7
			c0,0.5-0.5,0.9-1,0.9C334.9,279.7,334.6,279.4,334.6,279z"/>
		<path class="st15" d="M337.2,288.5c0-3.8,2.8-6.6,5.8-6.6c2.3,0,3.7,1.5,3.7,4c0,3.8-2.8,6.6-5.8,6.6
			C338.7,292.5,337.2,291.1,337.2,288.5z M345.8,286c0-2.2-1-3.4-2.9-3.4c-2.4,0-4.8,2.6-4.8,5.7c0,2.2,1,3.4,2.9,3.4
			C343.4,291.8,345.8,289.1,345.8,286z"/>
		<path class="st15" d="M350.9,282.2h0.8l-0.2,1.6h0.1c1.3-1.1,2.6-1.9,3.9-1.9c1.9,0,2.6,1,2.6,2.5c0,0.5,0,0.8-0.2,1.4l-1.4,6.5
			h-0.9l1.4-6.4c0.1-0.6,0.2-0.9,0.2-1.3c0-1.2-0.6-1.9-2-1.9c-1,0-2.3,0.6-3.9,2.1l-1.6,7.4h-0.9L350.9,282.2z"/>
		<path class="st15" d="M367.8,278.4h1.4l1.5,8.1l0.6,3.1h0.1l1.7-3.1l4.9-8.1h1.4l-3,13.9h-1l2-9.2c0.3-1.2,0.6-2.6,0.9-3.7h-0.1
			l-1.8,3l-5,8.3h-0.8l-1.6-8.3l-0.5-3h-0.1c-0.2,1.2-0.4,2.6-0.7,3.7l-2,9.2h-1L367.8,278.4z"/>
		<path class="st15" d="M386.3,281.9c2.4,0,3.3,1.5,3.3,3.6c0,0.7-0.2,1.4-0.3,1.8h-7.7c-0.6,3.2,1.1,4.5,3.3,4.5c1,0,2-0.5,2.8-1
			l0.4,0.6c-0.9,0.6-2.1,1.1-3.3,1.1c-2.6,0-4.2-1.5-4.2-4.2C380.6,284.5,383.5,281.9,386.3,281.9z M388.6,286.6
			c0.1-0.4,0.1-0.8,0.1-1.2c0-1.4-0.7-2.7-2.5-2.7c-2,0-3.9,1.6-4.5,3.9H388.6z"/>
		<path class="st15" d="M397.1,281.9c2.4,0,3.3,1.5,3.3,3.6c0,0.7-0.2,1.4-0.3,1.8h-7.7c-0.6,3.2,1.1,4.5,3.3,4.5c1,0,2-0.5,2.8-1
			l0.4,0.6c-0.9,0.6-2.1,1.1-3.3,1.1c-2.6,0-4.2-1.5-4.2-4.2C391.4,284.5,394.3,281.9,397.1,281.9z M399.4,286.6
			c0.1-0.4,0.1-0.8,0.1-1.2c0-1.4-0.7-2.7-2.5-2.7c-2,0-3.9,1.6-4.5,3.9H399.4z"/>
		<path class="st15" d="M402.6,290.5c0-0.4,0-0.7,0.1-1l1.5-6.6h-1.7l0.1-0.7l1.8-0.1l0.8-2.9h0.8l-0.6,2.9h3l-0.2,0.8h-3l-1.5,6.6
			c0,0.3-0.1,0.5-0.1,0.8c0,0.9,0.4,1.4,1.6,1.4c0.5,0,1-0.2,1.3-0.4l0.3,0.7c-0.4,0.2-1.1,0.5-1.8,0.5
			C403.2,292.5,402.6,291.6,402.6,290.5z"/>
		<path class="st15" d="M407.8,290.6l0.7-0.5c0.6,0.9,1.7,1.6,3.1,1.6c1.5,0,2.8-1,2.8-2.1c0-0.8-0.4-1.3-2.1-2.2
			c-2-1-2.7-1.7-2.7-2.7c0-1.7,1.6-2.9,3.5-2.9c1.2,0,2.3,0.5,3,1.2l-0.6,0.6c-0.6-0.6-1.4-1-2.5-1c-1.4,0-2.5,0.9-2.5,2
			c0,1,1,1.5,2,2c2.4,1.2,2.8,2,2.8,2.9c0,1.8-1.7,3-3.9,3C409.9,292.5,408.4,291.6,407.8,290.6z"/>
		<path class="st15" d="M425,278.4h8l-0.2,0.8h-7l-1.2,5.6h5.9l-0.2,0.8h-5.9l-1.5,6.7h-1L425,278.4z"/>
		<path class="st15" d="M432.3,288.9c0-3.9,2.9-7,6-7c1.3,0,2.3,0.7,2.8,1.6h0.1l0.4-1.4h0.8l-2.2,10.1h-0.8l0.2-1.6h-0.1
			c-1.1,1.1-2.6,1.9-4.1,1.9C433.6,292.5,432.3,291.2,432.3,288.9z M439.9,289.6l1.2-5.1c-0.8-1.3-1.7-1.8-2.7-1.8c-2.6,0-5,3-5,6
			c0,2,1,3,2.5,3C437.2,291.7,438.6,291,439.9,289.6z"/>
		<path class="st15" d="M446.6,282.2h0.8l-0.2,1.6h0.1c1.3-1.1,2.6-1.9,3.9-1.9c1.9,0,2.6,1,2.6,2.5c0,0.5,0,0.8-0.2,1.4l-1.4,6.5
			h-0.9l1.4-6.4c0.1-0.6,0.2-0.9,0.2-1.3c0-1.2-0.6-1.9-2-1.9c-1,0-2.3,0.6-3.9,2.1l-1.6,7.4h-0.9L446.6,282.2z"/>
		<path class="st15" d="M465.5,281.5l1-4.4h0.9l-3.3,15.1h-0.8l0.2-1.6h-0.1c-1.1,1.1-2.6,1.9-4.1,1.9c-1.9,0-3.2-1.3-3.2-3.6
			c0-3.9,2.9-7,6-7c1.3,0,2.2,0.7,2.8,1.6h0.1L465.5,281.5z M463.8,289.6l1.2-5.1c-0.8-1.3-1.7-1.8-2.7-1.8c-2.6,0-5,3-5,6
			c0,2,1,3,2.5,3C461,291.7,462.4,291,463.8,289.6z"/>
		<path class="st15" d="M468.3,288.5c0-3.8,2.8-6.6,5.8-6.6c2.3,0,3.7,1.5,3.7,4c0,3.8-2.8,6.6-5.8,6.6
			C469.8,292.5,468.3,291.1,468.3,288.5z M476.9,286c0-2.2-1-3.4-2.9-3.4c-2.4,0-4.8,2.6-4.8,5.7c0,2.2,1,3.4,2.9,3.4
			C474.5,291.8,476.9,289.1,476.9,286z"/>
		<path class="st15" d="M482.1,282.2h0.8l-0.2,1.6h0.1c1.2-1.1,2.6-1.9,3.7-1.9c1.8,0,2.5,1,2.5,2.1c1.5-1.4,2.9-2.1,4-2.1
			c1.8,0,2.6,1,2.6,2.5c0,0.5,0,0.8-0.2,1.4l-1.4,6.5H493l1.4-6.4c0.1-0.6,0.2-0.9,0.2-1.3c0-1.2-0.6-1.9-1.9-1.9
			c-0.7,0-2.1,0.6-3.7,2.1l-1.6,7.4h-0.9l1.4-6.4c0.1-0.6,0.2-0.9,0.2-1.3c0-1.2-0.6-1.9-1.9-1.9c-0.7,0-2.1,0.6-3.7,2.1l-1.6,7.4
			h-0.9L482.1,282.2z"/>
		<path class="st15" d="M497.9,291.8c0-0.5,0.5-1.1,1.1-1.1c0.5,0,0.7,0.3,0.7,0.8c0,0.5-0.5,1.1-1.1,1.1
			C498.2,292.5,497.9,292.2,497.9,291.8z M500.9,279.6l0.3-1.5h0.9l-0.3,1.5l-2,8.9h-0.7L500.9,279.6z"/>
	</g>
</g>
</svg>
